<svg width="65" height="64" viewBox="0 0 65 64" fill="none" xmlns="http://www.w3.org/2000/svg">
<circle cx="32.3067" cy="31.7891" r="31.1892" transform="rotate(180 32.3067 31.7891)" stroke="white" stroke-width="1.19958"/>
<path d="M22.4218 30.3406C21.6407 31.1217 21.6407 32.388 22.4217 33.1691L35.1493 45.8973C35.9303 46.6784 37.1967 46.6784 37.9777 45.8974C38.7588 45.1163 38.7588 43.85 37.9778 43.0689L26.6644 31.755L37.9783 20.4415C38.7594 19.6605 38.7594 18.3942 37.9784 17.6131C37.1974 16.832 35.9311 16.832 35.15 17.613L22.4218 30.3406ZM22.8359 33.7549C23.7109 33.7549 24.2109 33.7549 24.4687 33.7549C24.5976 33.7549 24.666 33.7549 24.6905 33.7549C24.6964 33.7549 24.7001 33.7549 24.7013 33.7549C24.7015 33.7549 24.7017 33.7549 24.7018 33.7549C24.702 33.7549 24.7026 33.7549 24.703 33.7549C24.7047 33.7549 26.701 31.7572 24.7109 29.7549C24.7072 29.7549 24.703 29.7549 24.7025 29.7549C24.7017 29.7549 24.7007 29.7549 24.7006 29.7549C24.6997 29.7549 24.6983 29.7549 24.6963 29.7549C24.6886 29.7549 24.6719 29.7549 24.6485 29.7549C24.5548 29.7549 24.3516 29.7549 24.1719 29.7549C24.0821 29.7549 23.9981 29.7549 23.9366 29.7549C23.9058 29.7549 23.8807 29.7549 23.8632 29.7549C23.8545 29.7549 23.8477 29.7549 23.8431 29.7549C23.8407 29.7549 23.839 29.7549 23.8378 29.7549C23.8372 29.7549 23.8367 29.7549 23.8364 29.7549C23.8363 29.7549 23.8362 29.7549 23.8361 29.7549C23.8361 29.7549 23.836 29.7549 23.836 29.7549C23.836 29.7549 23.836 29.7549 23.8359 31.7549C23.8359 33.7549 23.8359 33.7549 23.8359 33.7549C23.8359 33.7549 23.836 33.7549 23.836 33.7549C23.8361 33.7549 23.8362 33.7549 23.8363 33.7549C23.8366 33.7549 23.8371 33.7549 23.8377 33.7549C23.8389 33.7549 23.8406 33.7549 23.843 33.7549C23.8476 33.7549 23.8544 33.7549 23.8631 33.7549C23.8806 33.7549 23.9057 33.7549 23.9365 33.7549C23.998 33.7549 24.082 33.7549 24.1718 33.7549C24.3515 33.7549 24.5546 33.7549 24.6484 33.7549C24.6718 33.7549 24.6884 33.7549 24.696 33.7549C24.6979 33.7549 24.6992 33.7549 24.6999 33.7549C24.7005 33.7549 24.7 33.7549 24.6994 33.7549C24.6989 33.7549 24.6947 33.7549 24.6911 33.7549C22.701 31.7526 24.6973 29.7549 24.6989 29.7549C24.6993 29.7549 24.6998 29.7549 24.7 29.7549C24.7001 29.7549 24.7002 29.7549 24.7002 29.7549C24.7002 29.7549 24.7002 29.7549 24.7 29.7549C24.6999 29.7549 24.6997 29.7549 24.6994 29.7549C24.6989 29.7549 24.6983 29.7549 24.6974 29.7549C24.6958 29.7549 24.6934 29.7549 24.6904 29.7549C24.666 29.7549 24.5977 29.7549 24.4688 29.7549C24.211 29.7549 23.711 29.7549 22.836 29.7549L22.8359 33.7549Z" fill="white"/>
</svg>
