<svg id="Capa_1" data-name="Capa 1" xmlns="http://www.w3.org/2000/svg" viewBox="0 0 95.75 76"><defs><style>.cls-1{fill:#022953;}</style></defs><path class="cls-1" d="M58.65,23.88H51.89a22,22,0,0,0-2.35-5.73l4.88-4.88a1.42,1.42,0,0,0,0-2L48.48,5.33a1.43,1.43,0,0,0-2,0l-4.8,4.8a22.07,22.07,0,0,0-5.81-2.49V1.41A1.42,1.42,0,0,0,34.44,0H26a1.42,1.42,0,0,0-1.42,1.41V7.5A21.91,21.91,0,0,0,18.53,10L13.91,5.33a1.43,1.43,0,0,0-2,0L6,11.27a1.42,1.42,0,0,0,0,2l4.58,4.58a22.31,22.31,0,0,0-2.52,6H1.42A1.43,1.43,0,0,0,0,25.3v8.4a1.42,1.42,0,0,0,1.42,1.41H8a22.2,22.2,0,0,0,2.47,5.94L6,45.58a1.42,1.42,0,0,0,0,2l5.94,5.94a1.43,1.43,0,0,0,2,0L18.44,49a22.32,22.32,0,0,0,6.18,2.52v6.59A1.43,1.43,0,0,0,26,59.51h8.4a1.43,1.43,0,0,0,1.42-1.42V51.35a22.37,22.37,0,0,0,5.91-2.54l4.7,4.71a1.43,1.43,0,0,0,2,0l5.94-5.94a1.42,1.42,0,0,0,0-2l-4.83-4.83a22.29,22.29,0,0,0,2.3-5.64h6.76a1.41,1.41,0,0,0,1.41-1.41V25.3A1.42,1.42,0,0,0,58.65,23.88ZM30,41.9a12.4,12.4,0,1,1,12.4-12.4A12.4,12.4,0,0,1,30,41.9Z"/><path class="cls-1" d="M94.76,50.91H90a15.82,15.82,0,0,0-1.65-4l3.43-3.44a1,1,0,0,0,0-1.4L87.6,37.85a1,1,0,0,0-1.42,0L82.8,41.23a15.49,15.49,0,0,0-4.09-1.75V35.09a1,1,0,0,0-1-1H71.8a1,1,0,0,0-1,1v4.29a15.33,15.33,0,0,0-4.29,1.73l-3.25-3.26a1,1,0,0,0-1.42,0L57.66,42a1,1,0,0,0,0,1.4l3.23,3.23a15.74,15.74,0,0,0-1.78,4.24H54.47a1,1,0,0,0-1,1v5.92a1,1,0,0,0,1,1h4.64A15.72,15.72,0,0,0,60.85,63l-3.19,3.19a1,1,0,0,0,0,1.41l4.18,4.18a1,1,0,0,0,1.42,0l3.19-3.19a15.79,15.79,0,0,0,4.35,1.77V75a1,1,0,0,0,1,1h5.91a1,1,0,0,0,1-1V70.25a15.75,15.75,0,0,0,4.17-1.78l3.3,3.31a1,1,0,0,0,1.42,0l4.18-4.18a1,1,0,0,0,0-1.41l-3.4-3.4a15.7,15.7,0,0,0,1.62-4h4.76a1,1,0,0,0,1-1V51.91A1,1,0,0,0,94.76,50.91ZM74.55,63.6a8.73,8.73,0,1,1,8.73-8.73A8.73,8.73,0,0,1,74.55,63.6Z"/></svg>