<svg id="Capa_1" data-name="Capa 1" xmlns="http://www.w3.org/2000/svg" viewBox="0 0 73 68.74"><defs><style>.cls-1{fill:#022953;}</style></defs><path class="cls-1" d="M18.19,0A18.19,18.19,0,1,0,36.38,18.19,18.18,18.18,0,0,0,18.19,0ZM28.68,13.06,18.24,28.17h0l-.15.18a.1.1,0,0,0,0,.05,1.06,1.06,0,0,1-.15.15.45.45,0,0,1-.17.11,1.9,1.9,0,0,1-2.54-.31L8.34,20.45a1.93,1.93,0,0,1,.2-2.71,1.92,1.92,0,0,1,2.71.19l5.22,6,9.05-13.09a1.92,1.92,0,1,1,3.16,2.19Z"/><rect class="cls-1" x="42.66" y="6.19" width="30.34" height="5.96" rx="2.98"/><rect class="cls-1" x="42.66" y="24.83" width="30.34" height="5.96" rx="2.98"/><rect class="cls-1" x="1.21" y="43.46" width="71.79" height="5.96" rx="2.98"/><rect class="cls-1" x="1.21" y="61.76" width="71.79" height="5.96" rx="2.98"/></svg>