<svg id="Capa_1" data-name="Capa 1" xmlns="http://www.w3.org/2000/svg" viewBox="0 0 90.64 81.96"><defs><style>.cls-1{fill:#022953;}</style></defs><path class="cls-1" d="M21.67,37.46a6.21,6.21,0,1,1,6.21,6.21A6.21,6.21,0,0,1,21.67,37.46Z"/><path class="cls-1" d="M45.36,43.67a6.22,6.22,0,1,1,6.21-6.21A6.21,6.21,0,0,1,45.36,43.67Z"/><path class="cls-1" d="M63.06,43.67a6.22,6.22,0,1,1,6.21-6.21A6.21,6.21,0,0,1,63.06,43.67Z"/><path class="cls-1" d="M20.81,81.91c-4.53,0-9.49-.87-10.2-4.58-.57-3,1.87-4.52,3.48-5.56a18.75,18.75,0,0,0,5-4.28c.24-.29.46-.6.68-.91-12-6.76-19.4-18-19.4-30C.36,16.47,20.55.12,45.36.12s45,16.35,45,36.46S70.18,73,45.36,73L43.8,73a31.27,31.27,0,0,1-9.7,6.41A31.84,31.84,0,0,1,25,81.69,41.1,41.1,0,0,1,20.81,81.91ZM45.36,7.12c-20.95,0-38,13.21-38,29.46,0,10.33,7.15,20,18.66,25.34l3.11,1.43-1.36,3.14a24.24,24.24,0,0,1-3.2,5.35,23.72,23.72,0,0,1-2.89,3c.85,0,1.75-.06,2.65-.15A24.85,24.85,0,0,0,31.4,73a24.77,24.77,0,0,0,8.45-5.92L41,65.85l1.64.1c.92.06,1.82.09,2.74.09,21,0,38-13.22,38-29.46S66.32,7.12,45.36,7.12Z"/></svg>