<svg id="Capa_1" data-name="Capa 1" xmlns="http://www.w3.org/2000/svg" viewBox="0 0 79.64 71.74"><defs><style>.cls-1{fill:#022953;}</style></defs><path class="cls-1" d="M69.81.57h-60A9.83,9.83,0,0,0,0,10.4V61.91a9.83,9.83,0,0,0,9.83,9.83h60a9.83,9.83,0,0,0,9.83-9.83V10.4A9.83,9.83,0,0,0,69.81.57ZM74,60.7a5.23,5.23,0,0,1-5.23,5.23h-58A5.23,5.23,0,0,1,5.61,60.7V23.42a5.23,5.23,0,0,1,5.23-5.23h58A5.23,5.23,0,0,1,74,23.42Z"/><path class="cls-1" d="M36,27v3.16a1.42,1.42,0,0,1-1.41,1.42H31.43A1.43,1.43,0,0,1,30,30.17V27a1.43,1.43,0,0,1,1.42-1.42H34.6A1.42,1.42,0,0,1,36,27Z"/><path class="cls-1" d="M49.87,27v3.16a1.43,1.43,0,0,1-1.42,1.42H45.28a1.42,1.42,0,0,1-1.41-1.42V27a1.42,1.42,0,0,1,1.41-1.42h3.17A1.43,1.43,0,0,1,49.87,27Z"/><path class="cls-1" d="M63.72,27v3.16a1.43,1.43,0,0,1-1.42,1.42H59.13a1.42,1.42,0,0,1-1.41-1.42V27a1.42,1.42,0,0,1,1.41-1.42H62.3A1.43,1.43,0,0,1,63.72,27Z"/><path class="cls-1" d="M36,40.48v3.16a1.42,1.42,0,0,1-1.41,1.42H31.43A1.43,1.43,0,0,1,30,43.64V40.48a1.43,1.43,0,0,1,1.42-1.42H34.6A1.42,1.42,0,0,1,36,40.48Z"/><rect class="cls-1" x="17.25" y="39.06" width="6" height="6" rx="1.42"/><path class="cls-1" d="M49.87,40.48v3.16a1.43,1.43,0,0,1-1.42,1.42H45.28a1.42,1.42,0,0,1-1.41-1.42V40.48a1.42,1.42,0,0,1,1.41-1.42h3.17A1.43,1.43,0,0,1,49.87,40.48Z"/><path class="cls-1" d="M63.72,40.48v3.16a1.43,1.43,0,0,1-1.42,1.42H59.13a1.42,1.42,0,0,1-1.41-1.42V40.48a1.42,1.42,0,0,1,1.41-1.42H62.3A1.43,1.43,0,0,1,63.72,40.48Z"/><path class="cls-1" d="M36,53.94v3.17a1.42,1.42,0,0,1-1.41,1.42H31.43A1.43,1.43,0,0,1,30,57.11V53.94a1.42,1.42,0,0,1,1.42-1.41H34.6A1.41,1.41,0,0,1,36,53.94Z"/><path class="cls-1" d="M49.87,53.94v3.17a1.43,1.43,0,0,1-1.42,1.42H45.28a1.42,1.42,0,0,1-1.41-1.42V53.94a1.41,1.41,0,0,1,1.41-1.41h3.17A1.42,1.42,0,0,1,49.87,53.94Z"/><path class="cls-1" d="M23.25,53.94v3.17a1.43,1.43,0,0,1-1.42,1.42H18.67a1.43,1.43,0,0,1-1.42-1.42V53.94a1.42,1.42,0,0,1,1.42-1.41h3.16A1.42,1.42,0,0,1,23.25,53.94Z"/></svg>