<?xml version="1.0" encoding="UTF-8"?>
<svg version="1.1" xmlns="http://www.w3.org/2000/svg" width="143" height="192">
<path d="M0 0 C0.94082932 0.00359528 1.88165863 0.00719055 2.85099792 0.01089478 C4.3288829 0.01067574 4.3288829 0.01067574 5.83662415 0.01045227 C9.11023623 0.01115185 12.3837922 0.01894632 15.65739441 0.02676392 C17.92040984 0.02862794 20.18342567 0.03005191 22.44644165 0.03105164 C28.41577764 0.03487807 34.38508948 0.04470942 40.35441589 0.05575562 C46.44043145 0.06596705 52.52645089 0.07054868 58.61247253 0.07559204 C70.56365505 0.08633157 82.5148196 0.10340949 94.46598816 0.12442017 C92.62621226 3.24854343 90.86228491 5.98773023 88.35661316 8.61270142 C87.47743225 9.54215576 87.47743225 9.54215576 86.58049011 10.49038696 C85.96520447 11.13274292 85.34991882 11.77509888 84.71598816 12.43692017 C83.44295723 13.78242763 82.1708103 15.12877205 80.89958191 16.47598267 C80.29742859 17.11310181 79.69527527 17.75022095 79.07487488 18.40664673 C76.73081636 20.90934714 74.48557105 23.48909993 72.25114441 26.08926392 C69.32687908 29.42305437 66.30391627 32.66740422 63.28361511 35.91421509 C60.52073955 38.85322087 60.52073955 38.85322087 58.41915894 42.26693726 C55.11773514 45.40662086 51.13581364 44.64522278 46.76213074 44.57852173 C45.26917732 44.57939789 45.26917732 44.57939789 43.74606323 44.58029175 C40.45052931 44.57750115 37.15589566 44.54636232 33.86051941 44.51504517 C31.57794692 44.50758627 29.29536804 44.50189168 27.01278687 44.49789429 C21.00056831 44.48261044 14.98873535 44.44330451 8.97666931 44.39907837 C2.8436047 44.3581852 -3.28952212 44.33989598 -9.42268372 44.31973267 C-21.45996265 44.27681326 -33.4969552 44.20852837 -45.53401184 44.12442017 C-44.57916788 42.83676073 -43.62232067 41.55058661 -42.66462708 40.26504517 C-42.13199753 39.54864868 -41.59936798 38.8322522 -41.05059814 38.09414673 C-39.37755382 35.92121411 -37.58689937 34.00960751 -35.59651184 32.12442017 C-32.37148876 28.98474741 -29.38269248 25.73395999 -26.44807434 22.32363892 C-24.18246616 19.72050135 -21.86097632 17.17283293 -19.53401184 14.62442017 C-15.91059744 10.65249415 -12.3340334 6.64679796 -8.81135559 2.58535767 C-6.11930727 -0.49362114 -4.06722616 0.00656842 0 0 Z " fill="#052B54" transform="translate(47.53401184082031,22.875579833984375)"/>
<path d="M0 0 C1.81843918 0.01485695 1.81843918 0.01485695 3.6736145 0.03001404 C7.53625708 0.06912196 11.39603244 0.15694987 15.2578125 0.24609375 C17.88016723 0.28121168 20.5025666 0.31314982 23.125 0.34179688 C29.54524502 0.41887298 35.96382392 0.53593128 42.3828125 0.68359375 C41.64298884 4.07787326 40.82790071 5.55943155 38.2578125 7.93359375 C35.06412245 10.99096776 32.14544457 14.17816731 29.2578125 17.5234375 C24.91277821 22.52927909 20.43368387 27.41895078 15.984375 32.33203125 C15.20835938 33.19054687 14.43234375 34.0490625 13.6328125 34.93359375 C12.93671875 35.701875 12.240625 36.47015625 11.5234375 37.26171875 C9.24941776 39.73515083 9.24941776 39.73515083 7.13671875 42.95703125 C3.98032756 46.08208239 3.98032756 46.08208239 0.39453125 46.26953125 C-1.04804761 46.23000854 -2.49006052 46.15894308 -3.9296875 46.05859375 C-5.04053711 46.01798828 -5.04053711 46.01798828 -6.17382812 45.9765625 C-7.98954748 45.90627659 -9.80375551 45.79866464 -11.6171875 45.68359375 C-11.44316406 46.79734375 -11.26914062 47.91109375 -11.08984375 49.05859375 C-10.32156217 56.26153147 -10.02112762 62.25828402 -14.7109375 68.16015625 C-17.83472337 71.5942258 -21.20631872 74.73401573 -24.65527344 77.83740234 C-27.29714204 80.32344147 -29.62996779 83.02266231 -31.98510742 85.77783203 C-34.76914558 89.02872237 -37.69752203 92.14476837 -40.609375 95.28125 C-42.94122895 97.80742511 -45.18066622 100.36842432 -47.328125 103.05078125 C-48.08351563 103.91960937 -48.83890625 104.7884375 -49.6171875 105.68359375 C-50.2771875 105.68359375 -50.9371875 105.68359375 -51.6171875 105.68359375 C-51.80316047 97.73820453 -51.94499602 89.79373529 -52.03168488 81.84670258 C-52.07330834 78.15580476 -52.12968728 74.46640362 -52.22070312 70.77636719 C-52.30810907 67.21006246 -52.35555809 63.64518984 -52.37620544 60.07789612 C-52.3980213 58.06573168 -52.46040055 56.05413796 -52.52355957 54.04284668 C-52.5266587 47.6794999 -52.40542242 43.6584346 -47.77539062 39.02148438 C-46.39906207 37.89682915 -45.01334151 36.78354087 -43.6171875 35.68359375 C-42.48572637 34.45824493 -41.37705601 33.21097772 -40.3046875 31.93359375 C-37.31039062 28.45280928 -34.22866397 25.0594406 -31.1171875 21.68359375 C-23.82458566 14.24150448 -23.82458566 14.24150448 -17.57926941 5.97991943 C-12.96569381 -0.78508355 -7.66721049 -0.23633731 0 0 Z " fill="#6F7C8C" transform="translate(53.6171875,72.31640625)"/>
<path d="M0 0 C19.8 0.495 19.8 0.495 40 1 C40 20 40 20 36.96484375 25.07421875 C35.00976562 26.96679688 35.00976562 26.96679688 32.9375 28.6875 C31.61207377 29.91927491 30.2878512 31.15234628 28.96484375 32.38671875 C27.97339355 33.2694043 27.97339355 33.2694043 26.96191406 34.16992188 C24.31096956 36.64272924 21.98431672 39.33793479 19.63208008 42.09204102 C16.8495046 45.34496956 13.92006425 48.46074508 11.0078125 51.59765625 C8.67595855 54.12383136 6.43652128 56.68483057 4.2890625 59.3671875 C3.53367187 60.23601562 2.77828125 61.10484375 2 62 C1.34 62 0.68 62 0 62 C0 41.54 0 21.08 0 0 Z " fill="#BDC2C5" transform="translate(2,116)"/>
<path d="" fill="#7F91A4" transform="translate(0,0)"/>
</svg>
